<svg width="200" height="200" xmlns="http://www.w3.org/2000/svg">

 <g>
  <title>Layer 1</title>
  <rect stroke="#1a1a1a" rx="30" id="svg_5" height="200" width="200" y="0" x="0" fill="#1a1a1a"/>
  <g id="svg_6">
   <path id="svg_3" fill="#fff" stroke="#fff" d="m101.09501,146a6,6 0 0 1 6,-6l46.9,0a6,6 0 0 1 6,6l0,8a6,6 0 0 1 -6,6l-46.9,0a6,6 0 0 1 -6,-6l0,-8zm0,-50a6,6 0 0 1 6,-6l46.9,0a6,6 0 0 1 6,6l0,8a6,6 0 0 1 -6,6l-46.9,0a6,6 0 0 1 -6,-6l0,-8zm0,-50a6,6 0 0 1 6,-6l46.9,0a6,6 0 0 1 6,6l0,8a6,6 0 0 1 -6,6l-46.9,0a6,6 0 0 1 -6,-6l0,-8zm-15.49,44a6,6 0 0 1 6,6l0,57.3a6,6 0 0 1 -6,6l-8,0a6,6 0 0 1 -6,-6l0,-57.3a6,6 0 0 1 6,-6l8,0zm0,-50a6,6 0 0 1 6,6l0,28.5a6,6 0 0 1 -6,6l-8,0a6,6 0 0 1 -6,-6l0,-28.5a6,6 0 0 1 6,-6l8,0z"/>
   <path id="svg_4" fill="#fff" stroke="#fff" d="m51.78501,93.47a6,6 0 0 1 8.2,2.2l28.62,49.64a6,6 0 0 1 -2.2,8.2l-6.93,4a6,6 0 0 1 -8.2,-2.2l-28.62,-49.66a6,6 0 0 1 2.2,-8.18l6.93,-4zm2.22,-53.47a6,6 0 0 1 6,6l0,28.5a6,6 0 0 1 -6,6l-8,0a6,6 0 0 1 -6,-6l0,-28.5a6,6 0 0 1 6,-6l8,0z"/>
  </g>
 </g>
</svg>