<?xml version="1.0" standalone="no"?><!DOCTYPE svg PUBLIC "-//W3C//DTD SVG 1.1//EN" "http://www.w3.org/Graphics/SVG/1.1/DTD/svg11.dtd"><svg t="1683175380912" class="icon" viewBox="0 0 1024 1024" version="1.1" xmlns="http://www.w3.org/2000/svg" p-id="12143" data-spm-anchor-id="a313x.7781069.0.i14" xmlns:xlink="http://www.w3.org/1999/xlink" width="128" height="128"><path d="M933.12 505.386667l-0.213333-0.170667c-35.626667-75.093333-78.293333-135.765333-127.914667-182.016L755.370667 372.906667c42.794667 39.338667 79.786667 91.690667 111.658666 157.44-81.493333 168.618667-197.12 248.704-355.029333 248.704-50.218667 0-96.213333-8.106667-138.197333-24.576l-53.504 53.504c57.216 27.605333 121.045333 41.514667 191.701333 41.514666 188.074667 0 328.234667-98.346667 420.992-293.888a58.88 58.88 0 0 0 0.085333-50.218666z m-62.634667-325.12l-41.514666-41.472a7.850667 7.850667 0 0 0-11.093334 0L703.658667 253.013333c-57.173333-27.733333-120.96-41.6-191.616-41.6-188.117333 0-328.234667 98.346667-421.034667 293.888v0.085334a59.008 59.008 0 0 0 0 50.432c35.626667 75.050667 78.293333 135.722667 127.914667 182.101333L120.32 836.266667a7.850667 7.850667 0 0 0 0 11.093333l41.514667 41.472a7.850667 7.850667 0 0 0 11.093333 0l697.557333-697.6a7.722667 7.722667 0 0 0 0-10.922667z m-469.162666 375.04A109.568 109.568 0 0 1 532.906667 423.68l-131.626667 131.626667z m180.522666-180.565334a172.373333 172.373333 0 0 0-229.461333 229.504l-83.797333 83.754667c-42.752-39.338667-79.744-91.690667-111.658667-157.44C238.549333 361.941333 354.133333 281.898667 512 281.898667c50.218667 0 96.213333 8.106667 138.197333 24.533333l-68.352 68.309333z" fill="#27c18f" p-id="12144" data-spm-anchor-id="a313x.7781069.0.i10" class=""></path><path d="M508.074667 640.085333c-6.272 0-12.416-0.512-18.389334-1.578666l-50.005333 50.005333a172.245333 172.245333 0 0 0 226.56-226.56l-50.005333 50.005333a109.696 109.696 0 0 1-108.16 128.085334z" fill="#ffba40" p-id="12145" data-spm-anchor-id="a313x.7781069.0.i13" class=""></path></svg>