<?xml version="1.0" standalone="no"?><!DOCTYPE svg PUBLIC "-//W3C//DTD SVG 1.1//EN" "http://www.w3.org/Graphics/SVG/1.1/DTD/svg11.dtd"><svg t="1683541231716" class="icon" viewBox="0 0 1024 1024" version="1.1" xmlns="http://www.w3.org/2000/svg" p-id="2269" xmlns:xlink="http://www.w3.org/1999/xlink" width="32" height="32"><path d="M858 903.5H166c-26.4 0-48-21.6-48-48V367.8L512 123l394 244.8v487.7c0 26.4-21.6 48-48 48z" fill="#B9D5EA" p-id="2270"></path><path d="M858 913.5H166c-32 0-58-26-58-58V367.8c0-3.5 1.8-6.7 4.7-8.5l394-244.8c3.2-2 7.3-2 10.6 0l394 244.8c2.9 1.8 4.7 5 4.7 8.5v487.7c0 32-26 58-58 58zM128 373.4v482.1c0 21 17 38 38 38h692c21 0 38-17 38-38V373.4L512 134.8 128 373.4z" fill="#322E63" p-id="2271"></path><path d="M780.6 779.2H243.4c-6.6 0-12-5.4-12-12V163.5c0-26.5 21.5-48 48-48h376.7L792.6 252v515.2c0 6.6-5.4 12-12 12z" fill="#B9D5EA" p-id="2272"></path><path d="M780.6 589H243.4c-6.6 0-12-3.9-12-8.6V149.8c0-18.9 21.5-34.2 48-34.2h376.7L792.6 213v367.5c0 4.6-5.4 8.5-12 8.5z" fill="#FFFFFF" p-id="2273"></path><path d="M780.6 789.2H243.4c-12.1 0-22-9.9-22-22V163.5c0-32 26-58 58-58h376.7c2.7 0 5.2 1.1 7.1 2.9L799.6 245c1.9 1.9 2.9 4.4 2.9 7.1v515.2c0.1 12-9.8 21.9-21.9 21.9zM279.4 125.5c-21 0-38 17-38 38v603.7c0 1.1 0.9 2 2 2h537.1c1.1 0 2-0.9 2-2v-511L651.9 125.5H279.4z" fill="#322E63" p-id="2274"></path><path d="M792.6 252h-88.5c-26.4 0-48-21.6-48-48v-88.5L792.6 252z" fill="#FFB850" p-id="2275"></path><path d="M792.6 262h-88.5c-32 0-58-26-58-58v-88.5c0-4 2.4-7.7 6.2-9.2 3.7-1.5 8-0.7 10.9 2.2L799.6 245c2.9 2.9 3.7 7.2 2.2 10.9s-5.2 6.1-9.2 6.1zM666.1 139.7V204c0 21 17 38 38 38h64.3L666.1 139.7zM661.8 341.4H586c-5.5 0-10-4.5-10-10s4.5-10 10-10h75.8c5.5 0 10 4.5 10 10s-4.4 10-10 10zM528.6 341.4H352.8c-5.5 0-10-4.5-10-10s4.5-10 10-10h175.8c5.5 0 10 4.5 10 10s-4.5 10-10 10zM475.8 262h-123c-5.5 0-10-4.5-10-10s4.5-10 10-10h123c5.5 0 10 4.5 10 10s-4.5 10-10 10zM661.8 415h-309c-5.5 0-10-4.5-10-10s4.5-10 10-10h309c5.5 0 10 4.5 10 10s-4.4 10-10 10zM661.8 490.6H512c-5.5 0-10-4.5-10-10s4.5-10 10-10h149.8c5.5 0 10 4.5 10 10s-4.4 10-10 10zM440.7 490.6h-87.9c-5.5 0-10-4.5-10-10s4.5-10 10-10h87.9c5.5 0 10 4.5 10 10s-4.5 10-10 10z" fill="#322E63" p-id="2276"></path><path d="M617.3 638.9c-2-1.8-4.9-3.2-6.6-3.2H413.3c-1.7 0-4.6 1.4-6.6 3.2L132.8 890c8.6 8.3 20.4 13.5 33.3 13.5h692c12.9 0 24.6-5.2 33.3-13.5L617.3 638.9z" fill="#3b7d90" p-id="2277" data-spm-anchor-id="a313x.7781069.0.i8" class="selected"></path><path d="M846.5 849h-669l-44.7 41c8.6 8.3 20.4 13.5 33.3 13.5h692c12.9 0 24.6-5.2 33.3-13.5l-44.9-41z" fill="#B9D5EA" p-id="2278" data-spm-anchor-id="a313x.7781069.0.i7" class=""></path><path d="M858 913.5H166c-15 0-29.3-5.8-40.2-16.3l-7.7-7.4 281.8-258.3c2.9-2.7 8.2-5.8 13.4-5.8h197.5c5.2 0 10.4 3.1 13.4 5.8L906 889.8l-7.6 7.4c-11.1 10.5-25.4 16.3-40.4 16.3z m-709.5-24.3c5.4 2.8 11.4 4.3 17.6 4.3h692c6.2 0 12.2-1.5 17.6-4.3l-265-242.9c-0.2-0.2-0.6-0.4-0.9-0.6H414.3l-0.9 0.6-264.9 242.9z" fill="#322E63" p-id="2279"></path><path d="M906 367.8L610.7 635.6 891.1 890c9.1-8.7 14.8-21 14.8-34.6V367.8z" fill="#3b7d90" p-id="2280" data-spm-anchor-id="a313x.7781069.0.i10" class="selected"></path><path d="M891.2 900.1c-2.4 0-4.8-0.9-6.7-2.6L604 643.1c-2.1-1.9-3.3-4.6-3.3-7.4s1.2-5.5 3.3-7.4l295.2-267.8c2.9-2.7 7.2-3.3 10.8-1.7 3.6 1.6 5.9 5.2 5.9 9.1v487.7c0 15.9-6.3 30.7-17.9 41.8-1.8 1.7-4.3 2.7-6.8 2.7zM625.6 635.6l264.5 240c3.8-6 5.8-12.9 5.8-20.1V390.4L625.6 635.6z" fill="#322E63" p-id="2281"></path><path d="M132.8 890.1l280.4-254.4L118 367.8v487.7c0 13.5 5.7 25.8 14.8 34.6z" fill="#3b7d90" p-id="2282" data-spm-anchor-id="a313x.7781069.0.i9" class="selected"></path><path d="M132.8 900.1c-2.5 0-5-0.9-6.9-2.8-11.5-11.1-17.9-25.9-17.9-41.8V367.8c0-4 2.3-7.5 5.9-9.1 3.6-1.6 7.8-0.9 10.8 1.7L420 628.2c2.1 1.9 3.3 4.6 3.3 7.4s-1.2 5.5-3.3 7.4L139.5 897.5c-1.9 1.7-4.3 2.6-6.7 2.6zM128 390.4v465.1c0 7.2 2 14.2 5.8 20.1l264.5-240L128 390.4z" fill="#322E63" p-id="2283"></path></svg>