<?xml version="1.0" standalone="no"?><!DOCTYPE svg PUBLIC "-//W3C//DTD SVG 1.1//EN" "http://www.w3.org/Graphics/SVG/1.1/DTD/svg11.dtd"><svg t="1683541171422" class="icon" viewBox="0 0 1024 1024" version="1.1" xmlns="http://www.w3.org/2000/svg" p-id="1930" xmlns:xlink="http://www.w3.org/1999/xlink" width="32" height="32"><path d="M697.4 986H326.6c-39.8 0-72-32.2-72-72V120c0-39.8 32.2-72 72-72h370.8c39.8 0 72 32.2 72 72v794c0 39.8-32.2 72-72 72z" fill="#3b7d90" p-id="1931" data-spm-anchor-id="a313x.7781069.0.i3" class=""></path><path d="M697.4 986H326.6c-39.8 0-72-32.2-72-72V809h514.8v105c0 39.8-32.2 72-72 72z" fill="#0e0e38" p-id="1932" data-spm-anchor-id="a313x.7781069.0.i4" class="selected"></path><path d="M254.6 250.7v302.5L687.5 986h9.9c39.8 0 72-32.2 72-72V765.5L254.6 250.7zM769.4 631.6V554L280.3 64.9c-14.9 12.6-24.7 31.1-25.6 52l514.7 514.7z" fill="#FFFFFF" p-id="1933"></path><path d="M697.4 996H326.6c-45.2 0-82-36.8-82-82V120c0-45.2 36.8-82 82-82h370.8c45.2 0 82 36.8 82 82v794c0 45.2-36.8 82-82 82zM326.6 58c-34.2 0-62 27.8-62 62v794c0 34.2 27.8 62 62 62h370.8c34.2 0 62-27.8 62-62V120c0-34.2-27.8-62-62-62H326.6z" fill="#322E63" p-id="1934"></path><path d="M697.4 986H326.6c-39.8 0-72-32.2-72-72v-48.5h514.8V914c0 39.8-32.2 72-72 72z" fill="#FFFFFF" p-id="1935"></path><path d="M697.4 996H326.6c-45.2 0-82-36.8-82-82v-58.5h534.8V914c0 45.2-36.8 82-82 82zM264.6 875.5V914c0 34.2 27.8 62 62 62h370.8c34.2 0 62-27.8 62-62v-38.5H264.6z" fill="#322E63" p-id="1936"></path><path d="M697.4 48H326.6c-39.8 0-72 32.2-72 72v48.5h514.8V120c0-39.8-32.2-72-72-72z" fill="#FFFFFF" p-id="1937"></path><path d="M779.4 178.5H244.6V120c0-45.2 36.8-82 82-82h370.8c45.2 0 82 36.8 82 82v58.5z m-514.8-20h494.8V120c0-34.2-27.8-62-62-62H326.6c-34.2 0-62 27.8-62 62v38.5z" fill="#322E63" p-id="1938"></path><path d="M512 925.7m-21.9 0a21.9 21.9 0 1 0 43.8 0 21.9 21.9 0 1 0-43.8 0Z" fill="#322E63" p-id="1939"></path><path d="M584.9 115.7h-0.9c-5.5 0-10-4.5-10-10s4.5-10 10-10h0.9c5.5 0 10 4.5 10 10s-4.5 10-10 10zM537.2 115.7h-98.1c-5.5 0-10-4.5-10-10s4.5-10 10-10h98.1c5.5 0 10 4.5 10 10s-4.5 10-10 10z" fill="#322E63" p-id="1940"></path></svg>