<?xml version="1.0" standalone="no"?><!DOCTYPE svg PUBLIC "-//W3C//DTD SVG 1.1//EN" "http://www.w3.org/Graphics/SVG/1.1/DTD/svg11.dtd"><svg t="1683817644349" class="icon" viewBox="0 0 1024 1024" version="1.1" xmlns="http://www.w3.org/2000/svg" p-id="23904" xmlns:xlink="http://www.w3.org/1999/xlink" width="128" height="128"><path d="M567.936 460.16L352.768 258.176c-21.76-20.48-57.472-4.992-57.472 24.832v31.104c0 5.888-4.864 10.752-10.752 10.752H119.936c-27.776 0-50.432 22.656-50.432 50.432v219.392c0 27.776 22.656 50.432 50.432 50.432h164.608c5.888 0 10.752 4.864 10.752 10.752v31.104c0 29.952 35.712 45.312 57.472 24.832l215.168-201.984c14.464-13.312 14.464-36.096 0-49.664zM959.232 821.376l-288.64 110.208V60.288l288.64 68.224zM511.36 202.368c0-56.704 46.336-103.04 103.04-103.04h43.648v-10.496h-55.552c-56.704 0-103.04 46.336-103.04 103.04v153.088h11.904V202.368zM499.456 622.08v156.928c0 56.704 46.336 103.04 103.04 103.04h55.552v-10.496H614.4c-56.704 0-103.04-46.336-103.04-103.04V622.08h-11.904z" fill="#3b7d90" p-id="23905" data-spm-anchor-id="a313x.7781069.0.i23" class=""></path></svg>