<?xml version="1.0" standalone="no"?><!DOCTYPE svg PUBLIC "-//W3C//DTD SVG 1.1//EN" "http://www.w3.org/Graphics/SVG/1.1/DTD/svg11.dtd"><svg t="1683816045375" class="icon" viewBox="0 0 1024 1024" version="1.1" xmlns="http://www.w3.org/2000/svg" p-id="4370" xmlns:xlink="http://www.w3.org/1999/xlink" width="128" height="128"><path d="M326.493776 510.656923a4.892636 4.892636 0 0 1-4.412967-5.276372l4.412967-49.78977a20.913622 20.913622 0 0 1 2.973955-9.0178c13.910437-22.544501 131.237774-223.430392-34.919993-335.769159a4.317032 4.317032 0 0 0-4.892636 0 4.221098 4.221098 0 0 0-2.014615 4.317032c8.825932 66.194491 35.015927 290.008619-2.590219 391.602774a4.700768 4.700768 0 0 1-6.139779 2.878021 4.796702 4.796702 0 0 1-2.782087-6.235713c36.742739-99.483605 10.840547-321.379052 1.918681-386.997939a13.814503 13.814503 0 0 1 6.619449-13.718568 13.814503 13.814503 0 0 1 15.253513 0c173.544688 117.711074 52.188121 326.175754 37.70208 349.103991a12.183624 12.183624 0 0 0-1.534945 4.892636l-4.412966 49.789769a4.796702 4.796702 0 0 1-5.180438 4.221098z" fill="#D1C58B" p-id="4371"></path><path d="M279.486093 1007.595278a10.648679 10.648679 0 0 0 9.593405 11.224284h445.421772a10.648679 10.648679 0 0 0 9.593405-11.224284v-14.965711H279.486093z" fill="#FFFFFF" p-id="4372"></path><path d="M734.693138 1024H289.271366a15.349447 15.349447 0 0 1-14.581975-16.020986v-14.965711a4.796702 4.796702 0 0 1 4.796702-4.796702h465.088252a4.796702 4.796702 0 0 1 4.796702 4.796702v14.581975a15.349447 15.349447 0 0 1-14.677909 16.404722z m-450.890013-26.189994v9.785272a5.947911 5.947911 0 0 0 4.988571 6.427581h445.421772a5.947911 5.947911 0 0 0 5.084505-6.427581v-9.593404z" p-id="4373"></path><path d="M277.567412 510.656923h-0.47967a4.796702 4.796702 0 0 1-4.317032-5.276372l4.412966-49.78977a19.762413 19.762413 0 0 1 2.973956-9.0178c13.910437-22.544501 131.14184-223.430392-35.015927-335.769159a4.221098 4.221098 0 0 0-4.796702 0 4.221098 4.221098 0 0 0-2.110549 4.317032c8.921866 66.194491 35.015927 290.008619-2.494285 391.602774a4.796702 4.796702 0 0 1-6.139779 2.878021 4.892636 4.892636 0 0 1-2.878022-6.235713c36.838673-99.483605 10.840547-321.379052 2.014615-386.997939a13.622634 13.622634 0 0 1 6.523515-13.718568 13.910437 13.910437 0 0 1 15.349448 0c173.448754 117.711074 52.092187 326.175754 37.702079 349.103991a11.416151 11.416151 0 0 0-1.630878 4.892636l-4.412966 49.789769a4.796702 4.796702 0 0 1-4.700769 4.221098z" fill="#D1C58B" p-id="4374"></path><path d="M226.914236 510.656923h-0.47967a4.892636 4.892636 0 0 1-4.317032-5.276372l4.412966-49.78977a20.913622 20.913622 0 0 1 2.973956-9.0178c13.910437-22.544501 131.237774-223.430392-34.919993-335.769159a4.317032 4.317032 0 0 0-4.892636 0 4.412966 4.412966 0 0 0-2.110549 4.317032c8.921866 66.194491 35.111861 290.008619-2.494285 391.602774a4.700768 4.700768 0 0 1-6.139779 2.878021 4.98857 4.98857 0 0 1-2.878022-6.235713c36.838673-99.483605 10.840547-321.379052 2.014615-386.997939a13.622634 13.622634 0 0 1 6.523515-13.718568 13.910437 13.910437 0 0 1 15.349448 0c173.544688 117.711074 52.092187 326.175754 37.70208 349.103991a10.840547 10.840547 0 0 0-1.534945 4.892636l-4.412966 49.789769a4.892636 4.892636 0 0 1-4.796703 4.221098z" fill="#D1C58B" p-id="4375"></path><path d="M177.891939 510.656923a4.892636 4.892636 0 0 1-4.412966-5.276372l4.412966-49.78977a19.858347 19.858347 0 0 1 3.06989-9.0178c13.814503-22.544501 131.14184-223.430392-35.015927-335.769159a4.317032 4.317032 0 0 0-4.892636 0 4.221098 4.221098 0 0 0-2.014615 4.317032c8.825932 66.194491 35.015927 290.008619-2.590219 391.602774a4.700768 4.700768 0 0 1-6.139779 2.878021 4.796702 4.796702 0 0 1-2.782088-6.235713c36.742739-99.483605 10.840547-321.379052 1.918681-386.997939a14.006371 14.006371 0 0 1 6.61945-13.718568 13.814503 13.814503 0 0 1 15.253513 0c173.544688 117.711074 52.188121 326.175754 37.798014 349.103991a10.936481 10.936481 0 0 0-1.630879 4.892636l-4.412966 49.789769a4.796702 4.796702 0 0 1-5.180439 4.221098z" fill="#D1C58B" p-id="4376"></path><path d="M703.994244 471.132097m-164.143152 0a164.143152 164.143152 0 1 0 328.286304 0 164.143152 164.143152 0 1 0-328.286304 0Z" fill="#D1C58B" p-id="4377"></path><path d="M703.89831 640.071951a169.32359 169.32359 0 0 1-69.839985-15.15758 168.076447 168.076447 0 0 1-88.259322-94.495034 167.788645 167.788645 0 0 1 4.412966-129.223159 167.596777 167.596777 0 0 1 94.399101-88.259322 169.131722 169.131722 0 0 1 217.482481 98.908001A167.500843 167.500843 0 0 1 857.680585 540.972082a167.308975 167.308975 0 0 1-94.399101 88.259321 167.884579 167.884579 0 0 1-59.383174 10.840548z m0-328.286304a158.483043 158.483043 0 0 0-55.833614 10.169009 159.442383 159.442383 0 0 0-93.151959 205.106989 158.483043 158.483043 0 0 0 83.174818 89.122728 158.578977 158.578977 0 0 0 121.932171 4.125164 159.442383 159.442383 0 0 0 93.151958-205.106989A159.538317 159.538317 0 0 0 703.802376 311.785647z" p-id="4378"></path><path d="M711.285231 499.336706m-164.143151 0a164.143152 164.143152 0 1 0 328.286303 0 164.143152 164.143152 0 1 0-328.286303 0Z" fill="#D1C58B" p-id="4379"></path><path d="M711.285231 668.180626a169.131722 169.131722 0 0 1-168.939853-169.035788 169.131722 169.131722 0 0 1 168.939853-168.84392 169.131722 169.131722 0 0 1 168.939854 168.84392 169.131722 169.131722 0 0 1-168.939854 169.035788z m0-328.190369a159.538317 159.538317 0 0 0-159.346449 159.154581 159.538317 159.538317 0 0 0 159.346449 159.346449 159.538317 159.538317 0 0 0 159.34645-159.346449 159.538317 159.538317 0 0 0-159.34645-159.154581z" p-id="4380"></path><path d="M749.275113 528.692524m-164.143151 0a164.143152 164.143152 0 1 0 328.286303 0 164.143152 164.143152 0 1 0-328.286303 0Z" fill="#D1C58B" p-id="4381"></path><path d="M749.275113 697.536444a169.035788 169.035788 0 0 1-168.939853-168.84392A169.131722 169.131722 0 0 1 749.275113 359.75267a169.131722 169.131722 0 0 1 168.939854 168.939854 169.035788 169.035788 0 0 1-168.939854 168.84392z m0-328.190369a159.538317 159.538317 0 0 0-159.346449 159.346449 159.442383 159.442383 0 0 0 159.346449 159.250515 159.442383 159.442383 0 0 0 159.34645-159.250515A159.538317 159.538317 0 0 0 749.275113 369.346075z" p-id="4382"></path><path d="M648.832168 515.261758m-164.143152 0a164.143152 164.143152 0 1 0 328.286303 0 164.143152 164.143152 0 1 0-328.286303 0Z" fill="#D1C58B" p-id="4383"></path><path d="M648.832168 684.105677A169.131722 169.131722 0 0 1 479.892314 515.165823a169.131722 169.131722 0 0 1 168.939854-168.843919 169.131722 169.131722 0 0 1 168.747986 168.843919 169.131722 169.131722 0 0 1-168.747986 168.939854z m0-328.190369a159.538317 159.538317 0 0 0-159.346449 159.250515 159.538317 159.538317 0 0 0 159.346449 159.34645A159.538317 159.538317 0 0 0 807.986749 515.165823a159.538317 159.538317 0 0 0-159.154581-159.250515z" p-id="4384"></path><path d="M813.550924 572.822185m-164.143152 0a164.143152 164.143152 0 1 0 328.286303 0 164.143152 164.143152 0 1 0-328.286303 0Z" fill="#D1C58B" p-id="4385"></path><path d="M813.550924 741.666105A169.131722 169.131722 0 0 1 644.898872 572.726251a169.131722 169.131722 0 0 1 168.939854-168.84392 169.131722 169.131722 0 0 1 168.939854 168.84392A169.131722 169.131722 0 0 1 813.550924 741.666105z m0-328.19037a159.538317 159.538317 0 0 0-159.058647 159.250516 159.538317 159.538317 0 0 0 159.346449 159.346449 159.538317 159.538317 0 0 0 159.346449-159.346449A159.538317 159.538317 0 0 0 813.550924 413.475735z" p-id="4386"></path><path d="M534.958456 526.294173m-164.143152 0a164.143152 164.143152 0 1 0 328.286304 0 164.143152 164.143152 0 1 0-328.286304 0Z" fill="#D1C58B" p-id="4387"></path><path d="M534.958456 695.138093a169.131722 169.131722 0 0 1-168.939854-168.939854 169.131722 169.131722 0 0 1 168.939854-168.84392 169.035788 169.035788 0 0 1 168.84392 168.84392 169.035788 169.035788 0 0 1-168.84392 168.939854z m0-328.19037a159.538317 159.538317 0 0 0-159.346449 159.250516 159.538317 159.538317 0 0 0 159.346449 159.346449 159.538317 159.538317 0 0 0 159.250515-159.346449 159.442383 159.442383 0 0 0-159.250515-159.250516z" p-id="4388"></path><path d="M616.982065 544.617575m-164.143152 0a164.143152 164.143152 0 1 0 328.286303 0 164.143152 164.143152 0 1 0-328.286303 0Z" fill="#D1C58B" p-id="4389"></path><path d="M616.982065 713.461495a168.939854 168.939854 0 0 1-168.84392-168.84392 169.035788 169.035788 0 0 1 168.84392-168.939853 169.131722 169.131722 0 0 1 168.939854 168.939853 169.035788 169.035788 0 0 1-168.939854 168.84392z m0-328.190369a159.442383 159.442383 0 0 0-159.250515 159.346449 159.442383 159.442383 0 0 0 159.250515 159.250516 159.538317 159.538317 0 0 0 159.346449-159.250516 159.538317 159.538317 0 0 0-159.346449-159.346449z" p-id="4390"></path><path d="M521.52769 565.435263m-164.143152 0a164.143152 164.143152 0 1 0 328.286303 0 164.143152 164.143152 0 1 0-328.286303 0Z" fill="#D1C58B" p-id="4391"></path><path d="M521.431756 734.279183a169.035788 169.035788 0 0 1-168.84392-168.84392 169.131722 169.131722 0 0 1 168.84392-168.939854 169.131722 169.131722 0 0 1 168.939854 168.939854 169.035788 169.035788 0 0 1-168.939854 168.84392z m0-328.190369a159.538317 159.538317 0 0 0-159.250516 159.346449 159.442383 159.442383 0 0 0 159.250516 159.250516 159.538317 159.538317 0 0 0 159.346449-159.250516 159.538317 159.538317 0 0 0-159.346449-159.346449z" p-id="4392"></path><path d="M601.057013 599.779651m-164.143151 0a164.143152 164.143152 0 1 0 328.286303 0 164.143152 164.143152 0 1 0-328.286303 0Z" fill="#D1C58B" p-id="4393"></path><path d="M601.057013 768.623571a169.035788 169.035788 0 0 1-168.84392-168.939854 168.939854 168.939854 0 0 1 168.84392-168.843919 169.035788 169.035788 0 0 1 168.556118 168.843919 169.131722 169.131722 0 0 1-168.556118 168.939854z m0-328.190369a159.442383 159.442383 0 0 0-159.250515 159.250515 159.538317 159.538317 0 0 0 159.250515 159.34645 159.538317 159.538317 0 0 0 158.962713-159.34645 159.538317 159.538317 0 0 0-158.962713-159.250515z" p-id="4394"></path><path d="M487.183301 609.564924m-164.143151 0a164.143152 164.143152 0 1 0 328.286303 0 164.143152 164.143152 0 1 0-328.286303 0Z" fill="#D1C58B" p-id="4395"></path><path d="M487.183301 778.408844a169.131722 169.131722 0 0 1-168.460183-168.939854 169.131722 169.131722 0 0 1 168.939854-168.84392 169.131722 169.131722 0 0 1 168.939854 168.84392 169.131722 169.131722 0 0 1-169.419525 168.939854z m0-328.190369a159.538317 159.538317 0 0 0-158.866779 159.250515 159.538317 159.538317 0 0 0 159.34645 159.346449 159.538317 159.538317 0 0 0 159.346449-159.346449 159.538317 159.538317 0 0 0-159.82612-159.250515z" p-id="4396"></path><path d="M783.619502 589.994379m-164.143152 0a164.143152 164.143152 0 1 0 328.286303 0 164.143152 164.143152 0 1 0-328.286303 0Z" fill="#D1C58B" p-id="4397"></path><path d="M783.523568 758.838299a169.131722 169.131722 0 0 1-168.84392-168.939854 169.131722 169.131722 0 0 1 168.84392-168.939854 169.131722 169.131722 0 0 1 168.939853 168.939854A169.131722 169.131722 0 0 1 783.523568 758.838299z m0-328.286303a159.538317 159.538317 0 0 0-159.250516 159.346449 159.538317 159.538317 0 0 0 159.250516 159.346449 159.538317 159.538317 0 0 0 159.346449-159.346449 159.538317 159.538317 0 0 0-159.346449-159.346449z" p-id="4398"></path><path d="M787.264995 636.522391m-164.143151 0a164.143152 164.143152 0 1 0 328.286303 0 164.143152 164.143152 0 1 0-328.286303 0Z" fill="#D1C58B" p-id="4399"></path><path d="M787.264995 805.366311a169.131722 169.131722 0 0 1-168.939854-168.939854 169.035788 169.035788 0 0 1 168.939854-168.84392 169.035788 169.035788 0 0 1 168.84392 168.84392 169.131722 169.131722 0 0 1-168.84392 168.939854z m0-328.190369a159.538317 159.538317 0 0 0-159.346449 159.250515 159.538317 159.538317 0 0 0 159.346449 159.346449 159.538317 159.538317 0 0 0 159.250516-159.346449 159.442383 159.442383 0 0 0-159.250516-159.250515z" p-id="4400"></path><path d="M956.588585 141.790519l-830.309162-26.381862h-21.201424 22.448566l829.06202-19.18681a23.311973 23.311973 0 0 1 23.69571 22.928237 23.311973 23.311973 0 0 1-23.69571 22.640435z" fill="#B2874F" p-id="4401"></path><path d="M956.588585 146.587221L126.279423 119.917557h-21.10549a4.796702 4.796702 0 0 1-4.700768-4.796703 4.796702 4.796702 0 0 1 4.796702-4.796702h22.448567l828.870151-19.186809a28.204609 28.204609 0 0 1 28.780214 27.724939 28.108675 28.108675 0 0 1-28.780214 27.724939z m-655.613266-30.60296l655.7092 21.009556a18.515271 18.515271 0 0 0 19.186809-18.035601 18.515271 18.515271 0 0 0-19.186809-18.131534z" p-id="4402"></path><path d="M347.503331 510.656923a4.796702 4.796702 0 0 1-4.317032-5.276372l4.412967-49.78977a19.762413 19.762413 0 0 1 2.973955-9.0178c13.910437-22.544501 131.14184-223.430392-35.015927-335.769159a4.317032 4.317032 0 0 0-4.892636 0 4.221098 4.221098 0 0 0-2.014615 4.317032c8.921866 66.194491 35.015927 290.008619-2.494285 391.602774a4.892636 4.892636 0 0 1-6.235713 2.878021 4.892636 4.892636 0 0 1-2.782087-6.235713c36.838673-99.483605 10.840547-321.379052 2.014615-386.997939a13.718568 13.718568 0 0 1 6.523515-13.718568 13.814503 13.814503 0 0 1 15.253513 0c173.544688 117.711074 52.188121 326.175754 37.798014 349.103991a10.936481 10.936481 0 0 0-1.630879 4.892636l-4.412966 49.789769a4.796702 4.796702 0 0 1-5.180439 4.221098zM204.081934 510.656923h-0.479671a4.796702 4.796702 0 0 1-4.317032-5.276372l4.412966-49.78977a19.762413 19.762413 0 0 1 2.973956-9.0178c13.910437-22.544501 131.14184-223.430392-35.015927-335.769159a4.221098 4.221098 0 0 0-4.796702 0 4.221098 4.221098 0 0 0-2.110549 4.317032c8.921866 66.194491 35.111861 290.008619-2.494285 391.602774a4.796702 4.796702 0 0 1-6.139779 2.878021 4.892636 4.892636 0 0 1-2.878021-6.235713c36.838673-99.483605 10.840547-321.379052 2.014615-386.997939a13.622634 13.622634 0 0 1 6.523515-13.718568 13.910437 13.910437 0 0 1 15.349447 0c173.448754 117.711074 52.092187 326.175754 37.70208 349.103991a12.855162 12.855162 0 0 0-1.630879 4.892636l-4.412966 49.789769a4.796702 4.796702 0 0 1-4.700768 4.221098z" fill="#D1C58B" p-id="4403"></path><path d="M248.11566 510.656923a4.892636 4.892636 0 0 1-4.412966-5.276372l4.412966-49.78977a20.913622 20.913622 0 0 1 2.973956-9.0178c13.910437-22.544501 131.237774-223.430392-34.919993-335.769159a4.317032 4.317032 0 0 0-4.892636 0 4.412966 4.412966 0 0 0-2.110549 4.317032c8.921866 66.194491 35.111861 290.008619-2.494285 391.602774a4.700768 4.700768 0 0 1-6.139779 2.878021 4.796702 4.796702 0 0 1-2.782087-6.235713c36.742739-99.483605 10.840547-321.379052 1.918681-386.997939a13.814503 13.814503 0 0 1 6.619449-13.718568 13.814503 13.814503 0 0 1 15.253513 0c173.544688 117.711074 52.188121 326.175754 37.70208 349.103991a12.663294 12.663294 0 0 0-1.534945 4.892636L253.296099 506.435825a4.796702 4.796702 0 0 1-5.180439 4.221098z" fill="#D1C58B" p-id="4404"></path><path d="M303.661473 510.656923h-0.47967a4.892636 4.892636 0 0 1-4.317033-5.276372l4.412967-49.78977a20.913622 20.913622 0 0 1 2.973955-9.0178c13.910437-22.544501 131.237774-223.430392-34.919993-335.769159a4.317032 4.317032 0 0 0-4.892636 0 4.412966 4.412966 0 0 0-2.110549 4.317032c8.921866 66.194491 35.111861 290.008619-2.494285 391.602774a4.700768 4.700768 0 0 1-6.139779 2.878021 4.98857 4.98857 0 0 1-2.878021-6.235713c36.838673-99.483605 10.840547-321.379052 2.014615-386.997939a13.622634 13.622634 0 0 1 6.523515-13.718568 13.910437 13.910437 0 0 1 15.349447 0c173.544688 117.711074 52.092187 326.175754 37.70208 349.103991a10.840547 10.840547 0 0 0-1.534945 4.892636l-4.412966 49.789769a4.892636 4.892636 0 0 1-4.796702 4.221098z" fill="#D1C58B" p-id="4405"></path><path d="M1010.119783 511.616264a18.611205 18.611205 0 0 0-14.486041-7.195054H28.330763a18.419337 18.419337 0 0 0-14.390107 7.195054A24.65505 24.65505 0 0 0 8.664283 528.59659c12.471426 208.560615 96.797452 397.358816 250.675661 465.088252h505.380551c153.494473-67.729436 238.204235-256.527637 250.579726-465.088252a24.559116 24.559116 0 0 0-5.180438-16.980326z" fill="#D9362C" p-id="4406"></path><path d="M764.720495 998.481544H259.339944a4.412966 4.412966 0 0 1-1.918681 0C112.368986 934.781338 17.58615 759.317969 3.867581 529.364062a29.547686 29.547686 0 0 1 6.331647-20.242083 23.311973 23.311973 0 0 1 18.131535-9.017801h967.302979a23.503841 23.503841 0 0 1 18.227468 9.017801 28.780214 28.780214 0 0 1 6.235713 20.242083c-13.718568 230.241709-108.501405 405.417276-253.457747 469.117482a4.412966 4.412966 0 0 1-1.918681 0z m-504.421211-9.593405H763.66522c141.118981-62.644932 233.407532-234.750609 246.838299-460.483417a19.186809 19.186809 0 0 0-4.125164-13.622635 13.718568 13.718568 0 0 0-10.744613-5.46824H28.330763a13.5267 13.5267 0 0 0-10.648679 5.46824A19.186809 19.186809 0 0 0 13.460986 528.404722c13.5267 225.732809 105.719318 397.838486 246.838298 460.483417z" p-id="4407"></path><path d="M955.533311 50.365374l-826.567735 51.70845-23.503841 2.014615 23.503841-2.014615L951.887817 4.796702a23.503841 23.503841 0 0 1 25.518456 21.009556 23.216039 23.216039 0 0 1-21.872962 24.559116z" fill="#B2874F" p-id="4408"></path><path d="M105.461735 108.789207a4.892636 4.892636 0 0 1-4.796702-4.317032v-0.47967a4.796702 4.796702 0 0 1 4.412966-4.700768l23.503841-2.014615L951.312213 0.287802a28.780214 28.780214 0 0 1 30.890762 25.422522 27.149335 27.149335 0 0 1-6.523515 19.762413 28.780214 28.780214 0 0 1-19.762413 9.593405l-826.567735 51.70845-23.407907 1.918681zM953.806498 9.881207h-1.918681l-650.240959 76.747236 653.11898-40.867903a19.186809 19.186809 0 0 0 13.238899-6.619449 17.364062 17.364062 0 0 0 4.221098-12.759229 18.515271 18.515271 0 0 0-18.419337-16.500655z m1.726813 40.867903z" p-id="4409"></path></svg>