<?xml version="1.0" standalone="no"?><!DOCTYPE svg PUBLIC "-//W3C//DTD SVG 1.1//EN" "http://www.w3.org/Graphics/SVG/1.1/DTD/svg11.dtd"><svg t="1683547972497" class="icon" viewBox="0 0 1024 1024" version="1.1" xmlns="http://www.w3.org/2000/svg" p-id="4870" width="128" height="128" xmlns:xlink="http://www.w3.org/1999/xlink"><path d="M512 85.333333a426.666667 426.666667 0 1 0 426.666667 426.666667A426.666667 426.666667 0 0 0 512 85.333333z m42.666667 576a21.333333 21.333333 0 0 1-21.333334 21.333334h-42.666666a21.333333 21.333333 0 0 1-21.333334-21.333334v-42.666666a21.333333 21.333333 0 0 1 21.333334-21.333334h42.666666a21.333333 21.333333 0 0 1 21.333334 21.333334z m-9.386667-158.72a10.666667 10.666667 0 0 1-10.666667 9.386667h-45.226666a10.666667 10.666667 0 0 1-10.666667-9.386667l-17.066667-137.386666a21.333333 21.333333 0 0 1 21.333334-23.893334h58.026666a21.333333 21.333333 0 0 1 21.333334 23.893334z" p-id="4871" data-spm-anchor-id="a313x.7781069.0.i6" class="" fill="#ffa008"></path></svg>