<?xml version="1.0" standalone="no"?><!DOCTYPE svg PUBLIC "-//W3C//DTD SVG 1.1//EN" "http://www.w3.org/Graphics/SVG/1.1/DTD/svg11.dtd"><svg t="1683786680529" class="icon" viewBox="0 0 1024 1024" version="1.1" xmlns="http://www.w3.org/2000/svg" p-id="6677" xmlns:xlink="http://www.w3.org/1999/xlink" width="128" height="128"><path d="M204.32 811.2a400 400 0 1 1 592-537.6 32.96 32.96 0 1 1-51.2 41.6 333.44 333.44 0 1 0-200 540.8 337.92 337.92 0 0 0 275.2-291.2 342.08 342.08 0 0 0-3.2-99.2 138.4 138.4 0 0 0-9.6-36.8 33.44 33.44 0 1 1 64-19.2 458.4 458.4 0 0 1 11.2 44.8 486.4 486.4 0 0 1 4.8 118.4 399.04 399.04 0 0 1-329.6 350.4 474.56 474.56 0 0 1-67.2 4.8 405.6 405.6 0 0 1-286.4-116.8z" fill="#3b7d90" p-id="6678" data-spm-anchor-id="a313x.7781069.0.i25" class=""></path><path d="M528 875.2l195.2-62.4 121.6-113.6 59.2-144-3.2-128-20.8-72a336.96 336.96 0 0 0-40-68.8 430.24 430.24 0 0 0-72-67.2l-140.8-83.2-120-9.6-27.2 384 20.8 220.8z" fill="#629eae" p-id="6679" data-spm-anchor-id="a313x.7781069.0.i28" class="selected"></path><path d="M541.92 865.6V131.2l-129.6 24-177.6 124.8-64 214.4 40 174.4 102.4 123.2 144 68.8z" fill="#3b7d90" p-id="6680" data-spm-anchor-id="a313x.7781069.0.i24" class=""></path><path d="M252.32 779.2a400 400 0 1 1 592-537.6 32.96 32.96 0 1 1-51.2 41.6 333.44 333.44 0 1 0-200 540.8 337.92 337.92 0 0 0 275.2-291.2 342.08 342.08 0 0 0-3.2-99.2 138.4 138.4 0 0 0-9.6-36.8 33.44 33.44 0 1 1 64-19.2 458.4 458.4 0 0 1 11.2 44.8 486.4 486.4 0 0 1 4.8 118.4 399.04 399.04 0 0 1-329.6 350.4 474.56 474.56 0 0 1-67.2 4.8 405.6 405.6 0 0 1-286.4-116.8z" fill="#464646" p-id="6681"></path><path d="M679.52 472h-102.4v-110.4a27.36 27.36 0 0 0-28.8-27.2 28.32 28.32 0 0 0-28.8 27.2v110.4h-112a28.8 28.8 0 0 0 0 57.6h112v99.2a27.36 27.36 0 0 0 28.8 27.2 28.32 28.32 0 0 0 28.8-27.2v-99.2h102.4a28.8 28.8 0 0 0 0-57.6z" fill="#FFFFFF" p-id="6682"></path></svg>