<?xml version="1.0" standalone="no"?><!DOCTYPE svg PUBLIC "-//W3C//DTD SVG 1.1//EN" "http://www.w3.org/Graphics/SVG/1.1/DTD/svg11.dtd"><svg t="1683807535645" class="icon" viewBox="0 0 1024 1024" version="1.1" xmlns="http://www.w3.org/2000/svg" p-id="9721" id="mx_n_1683807535645" xmlns:xlink="http://www.w3.org/1999/xlink" width="128" height="128"><path d="M809.8816 139.5712H225.536c-80.1792 0-145.408 65.2288-145.408 145.408v447.0784c0 80.1792 65.2288 145.408 145.408 145.408h584.3456c80.1792 0 145.408-65.2288 145.408-145.408V285.0304c0-80.2304-65.2288-145.4592-145.408-145.4592z" fill="#3b7d90" p-id="9722" data-spm-anchor-id="a313x.7781069.0.i14" class="selected"></path><path d="M461.7216 515.7888a123.66336 123.66336 0 0 0 33.6896-84.9408c0-68.4544-55.7056-124.2112-124.2112-124.2112S247.04 362.3424 247.04 430.848c0 32.8192 12.8512 62.72 33.6896 84.9408-45.8752 29.7472-76.288 81.3568-76.288 140.032 0 18.2272 14.7968 33.024 33.024 33.024s33.024-14.7968 33.024-33.024c0-55.552 45.2096-100.7616 100.7616-100.7616s100.7616 45.2096 100.7616 100.7616c0 18.2272 14.7968 33.024 33.024 33.024s33.024-14.7968 33.024-33.024c0-58.6752-30.464-110.2848-76.3392-140.032zM313.088 430.848c0-32.0512 26.0608-58.1632 58.1632-58.1632 32.0512 0 58.1632 26.112 58.1632 58.1632s-26.0608 58.1632-58.1632 58.1632c-32.0512 0-58.1632-26.112-58.1632-58.1632zM811.4176 564.6336h-172.288c-18.2272 0-33.024 14.7968-33.024 33.024s14.7968 33.024 33.024 33.024h172.288c18.2272 0 33.024-14.7968 33.024-33.024s-14.7968-33.024-33.024-33.024zM639.1296 451.5328h103.7824c18.2272 0 33.024-14.7968 33.024-33.024s-14.7968-33.024-33.024-33.024h-103.7824c-18.2272 0-33.024 14.7968-33.024 33.024s14.7968 33.024 33.024 33.024z" fill="#FFFFFF" p-id="9723"></path></svg>