<?xml version="1.0" standalone="no"?><!DOCTYPE svg PUBLIC "-//W3C//DTD SVG 1.1//EN" "http://www.w3.org/Graphics/SVG/1.1/DTD/svg11.dtd"><svg t="1683898474125" class="icon" viewBox="0 0 1024 1024" version="1.1" xmlns="http://www.w3.org/2000/svg" p-id="23271" xmlns:xlink="http://www.w3.org/1999/xlink" width="128" height="128"><path d="M841.1648 390.2464h-174.6944s83.6096-293.2224-87.1936-297.472c-42.7008-1.0752-74.7008 35.2256-81.152 92.8768-2.816 25.1392-6.656 65.4336-22.272 106.1888-30.0032 78.2848-106.3424 129.024-190.1568 129.024H188.16c-44.1856 0-80.0256 35.84-80.0256 80.0256v346.624c0 44.1856 35.84 80.0256 80.0256 80.0256h583.2192c69.7344 0 91.0848-34.1504 105.3184-108.1856 14.2336-74.0352 52.6848-267.5712 59.8016-310.272 7.168-42.7008 1.4848-118.8352-95.3344-118.8352z" fill="#F9E230" p-id="23272"></path><path d="M825.9584 487.3728H651.264s12.3392-43.4688 17.8688-97.1264h-2.6112s1.6384-5.8368 3.9936-15.616c6.0416-83.1488-7.5776-182.272-106.3936-184.7296-42.7008-1.0752-74.7008 35.2256-81.152 92.8768-2.816 25.1392-6.656 65.4336-22.3232 106.1888-30.0032 78.2336-106.3424 129.024-190.1568 129.024H134.1952c-9.8816 0-18.944 3.4816-26.0608 9.2672v320.3072c0 44.1856 35.84 80.0256 80.0256 80.0256h583.2192c69.7344 0 91.0848-34.1504 105.3184-108.1856 10.0352-52.1216 32.0512-163.4816 46.6944-239.7696-0.256-41.7792-18.688-92.2624-97.4336-92.2624z" fill="#F6DB2D" p-id="23273"></path><path d="M503.7056 927.5904h267.7248c69.7344 0 91.0848-34.1504 105.3184-108.1856 6.7584-35.0208 18.8928-96.8704 30.6176-156.8256-4.3008-38.1952-26.624-78.08-96.6656-78.08h-174.6944s83.6096-293.2224-87.1936-297.472c-42.7008-1.0752-74.7008 35.2256-81.152 92.8768-2.816 25.1392-6.656 65.4336-22.3232 106.24-30.0032 78.2336-106.3424 128.9728-190.1056 128.9728H118.9376c-3.7376 0-7.3728 0.5632-10.8032 1.4848v230.9632c0 44.1856 35.84 80.0256 80.0256 80.0256h315.5456z" fill="#F5D228" p-id="23274"></path><path d="M795.4432 681.6256h-174.6944s83.6096-293.2224-87.1936-297.472c-42.7008-1.0752-74.7008 35.2256-81.152 92.8768-2.816 25.1392-6.656 65.4336-22.3232 106.1888-30.0032 78.2336-106.3424 129.024-190.1056 129.024H108.1344v135.2704c0 44.1856 35.84 80.0256 80.0256 80.0256h583.2192c69.7344 0 91.0848-34.1504 105.3184-108.1856 3.4304-17.7664 8.2432-42.496 13.6704-70.2976-7.1168-34.6112-31.3856-67.4304-94.9248-67.4304z" fill="#F2C824" p-id="23275"></path><path d="M503.7056 927.5904h267.7248c63.7952 0 87.0912-28.7232 101.4784-90.2656-9.4208-31.1296-34.6624-58.5216-92.7232-58.5216h-174.6944s83.6096-293.2224-87.1936-297.472c-42.7008-1.0752-74.7008 35.2256-81.152 92.8768-2.816 25.1392-6.656 65.3824-22.272 106.1888-30.0032 78.2848-106.3424 129.024-190.1568 129.024H108.1344v38.144c0 44.1856 35.84 80.0256 80.0256 80.0256h315.5456z" fill="#F0BF21" p-id="23276"></path><path d="M245.6576 870.656c-22.6304 0-40.96-18.3296-40.96-40.96v-307.0464c0-22.6304 18.3296-40.96 40.96-40.96s40.96 18.3296 40.96 40.96v307.0464c0 22.6304-18.3296 40.96-40.96 40.96z" fill="#FFFFFF" p-id="23277"></path></svg>