<?xml version="1.0" standalone="no"?><!DOCTYPE svg PUBLIC "-//W3C//DTD SVG 1.1//EN" "http://www.w3.org/Graphics/SVG/1.1/DTD/svg11.dtd"><svg t="1683599693439" class="icon" viewBox="0 0 1024 1024" version="1.1" xmlns="http://www.w3.org/2000/svg" p-id="4525" xmlns:xlink="http://www.w3.org/1999/xlink" width="128" height="128"><path d="M252.068571 906.496h520.283429c89.581714 0 134.144-44.562286 134.144-132.845714V250.331429c0-88.283429-44.562286-132.845714-134.144-132.845715H252.068571c-89.142857 0-134.582857 44.141714-134.582857 132.845715V773.668571c0 88.704 45.44 132.845714 134.582857 132.845715z m1.28-68.992c-42.843429 0-66.852571-22.710857-66.852571-67.291429V253.805714c0-44.580571 24.009143-67.291429 66.852571-67.291428h517.723429c42.422857 0 66.432 22.710857 66.432 67.291428V770.194286c0 44.580571-24.009143 67.291429-66.432 67.291428z m79.286858-180.425143a34.011429 34.011429 0 0 0 33.865142 34.285714c9.417143 0 17.993143-3.437714 23.990858-9.874285l121.289142-121.709715 121.709715 121.728c6.016 5.997714 14.153143 9.856 23.588571 9.856a34.377143 34.377143 0 0 0 34.285714-34.285714c0-9.874286-3.858286-17.572571-10.294857-24.009143l-120.868571-121.289143 121.307428-121.709714c6.838857-6.857143 10.276571-14.573714 10.276572-23.570286 0-18.852571-14.994286-34.285714-34.285714-34.285714-8.576 0-15.853714 3.437714-22.710858 10.294857l-123.008 122.148572-122.148571-121.728c-6.418286-5.997714-13.714286-9.874286-23.131429-9.874286-18.432 0-33.865143 15.012571-33.865142 33.865143 0 9.014857 3.858286 17.152 9.874285 23.588571l121.270857 121.270857-121.289142 121.728c-5.997714 6.418286-9.856 14.134857-9.856 23.570286z" p-id="4526" fill="#8a8a8a"></path></svg>