<?xml version="1.0" standalone="no"?><!DOCTYPE svg PUBLIC "-//W3C//DTD SVG 1.1//EN" "http://www.w3.org/Graphics/SVG/1.1/DTD/svg11.dtd"><svg t="1683622659463" class="icon" viewBox="0 0 1035 1024" version="1.1" xmlns="http://www.w3.org/2000/svg" p-id="4726" xmlns:xlink="http://www.w3.org/1999/xlink" width="129.375" height="128"><path d="M513.729594 469.669947c-103.411971 0-187.555144-84.14074-187.555144-187.555144 0-103.410754 84.143173-187.553927 187.555144-187.553927 103.411971 0 187.55636 84.143173 187.55636 187.553927C701.284738 385.527991 617.141565 469.669947 513.729594 469.669947zM513.729594 140.877996c-77.892551 0-141.238024 63.356419-141.238024 141.236808 0 77.881604 63.345473 141.23924 141.238024 141.23924 77.893768 0 141.238024-63.356419 141.238024-141.23924C654.966402 204.234415 591.623362 140.877996 513.729594 140.877996z" fill="#322e63" p-id="4727" data-spm-anchor-id="a313x.7781069.0.i15" class=""></path><path d="M513.729594 282.114804m-39.948516 0a32.844 32.844 0 1 0 79.897032 0 32.844 32.844 0 1 0-79.897032 0Z" fill="#3b7d90" p-id="4728" data-spm-anchor-id="a313x.7781069.0.i17" class="selected"></path><path d="M888.338762 922.385737c-12.78586 0-23.159776-10.373916-23.159776-23.157344l0-78.098108c0-193.802117-157.644842-351.461554-351.450608-351.461554-193.802117 0-351.473717 157.659438-351.473717 351.461554l0 78.098108c0 12.783428-10.375132 23.157344-23.15856 23.157344s-23.15856-10.373916-23.15856-23.157344l0-78.098108c0-219.333699 178.443759-397.777458 397.789621-397.777458 219.323969 0 397.766511 178.443759 397.766511 397.777458l0 78.098108C911.494889 912.011821 901.122189 922.385737 888.338762 922.385737z" fill="#322e63" p-id="4729" data-spm-anchor-id="a313x.7781069.0.i12" class=""></path><path d="M803.147128 899.228393 803.147128 830.205181c0-159.171312-130.245006-289.415102-289.417534-289.415102S224.31206 671.033869 224.31206 830.205181l0 69.023212L803.147128 899.228393z" fill="#3b7d90" p-id="4730" data-spm-anchor-id="a313x.7781069.0.i18" class="selected"></path><path d="M513.729594 570.828094c-12.782211 0-23.157344-10.373916-23.157344-23.157344l0-101.159363c0-12.783428 10.373916-23.15856 23.157344-23.15856s23.159776 10.373916 23.159776 23.15856l0 101.159363C536.88937 560.454178 526.513022 570.828094 513.729594 570.828094z" fill="#322e63" p-id="4731" data-spm-anchor-id="a313x.7781069.0.i16" class=""></path></svg>