<svg width="1024" height="1024" xmlns="http://www.w3.org/2000/svg" p-id="3640" version="1.1" class="icon" t="1684750133554">

 <g>
  <title>Layer 1</title>
  <g transform="rotate(-180 509.775 498.381)" id="svg_5">
   <path id="svg_1" data-spm-anchor-id="a313x.7781069.0.i2" p-id="3641" fill="#515151" d="m279.808,647.4752c0,-72.2944 0.4608,-144.5888 -0.3072,-216.832c-0.2048,-21.0432 7.3728,-32.0512 27.8016,-39.1168c78.0288,-26.8288 124.16,-83.6096 146.8416,-161.4336c7.8848,-27.0848 15.1552,-54.5792 26.1632,-80.384c17.8688,-41.8304 50.688,-56.5248 96.256,-46.7968c35.1744,7.5264 57.344,37.5808 57.7024,79.6672c0.4608,53.6576 0.0512,107.3152 0.2048,160.9728c0.1024,29.3888 5.2224,35.4304 35.2256,35.7376c60.3648,0.6656 120.7808,2.048 181.0432,-0.3072c53.6576,-2.0992 92.672,32.8704 79.1552,92.672c-16.1792,71.6288 -36.608,142.336 -56.576,213.0944c-12.288,43.6224 -26.7264,86.6816 -40.8576,129.7408c-18.688,56.9856 -53.5552,82.176 -112.4352,82.176l-395.6736,0c-42.496,0 -44.5952,-2.048 -44.5952,-43.5712c0.0512,-68.5056 0.0512,-137.0624 0.0512,-205.6192z"/>
   <path id="svg_2" data-spm-anchor-id="a313x.7781069.0.i1" p-id="3642" fill="#707070" d="m215.1936,645.888c0,70.0416 0.1536,140.1344 -0.1024,210.176c-0.1024,34.4576 -6.5024,40.5504 -40.2432,40.6528c-9.6768,0.0512 -19.3536,0.0512 -29.0816,0c-39.5776,-0.2048 -58.368,-18.6368 -58.5728,-59.1872c-0.4096,-73.0112 -0.1536,-146.0736 -0.1536,-219.136c0,-53.6576 -0.2048,-107.3152 0.1024,-160.9728c0.256,-42.6496 20.8896,-63.0272 62.9248,-63.1808c65.0752,-0.256 65.0752,-0.256 65.0752,63.8464c0.1024,62.5664 0.1024,125.184 0.0512,187.8016zm667.904,-257.3312c0,-1.9456 -0.1024,-3.84 -0.1536,-5.7856c-9.8304,-2.8672 -20.6336,-4.1984 -32.1536,-3.7888c-60.2624,2.3552 -120.6784,0.9728 -181.0432,0.3072c-29.952,-0.3072 -35.1232,-6.3488 -35.2256,-35.7376c-0.1536,-53.6576 0.256,-107.3152 -0.2048,-160.9728c-0.3584,-42.0864 -22.5792,-72.1408 -57.7024,-79.6672c-45.568,-9.7792 -78.3872,4.9664 -96.256,46.7968c-11.008,25.8048 -18.2784,53.3504 -26.1632,80.384c-22.6816,77.8752 -68.8128,134.6048 -146.8416,161.4336c-20.48,7.0656 -28.0576,18.0736 -27.8016,39.1168c0.768,72.2944 0.3072,144.5376 0.3072,216.832l0,205.6704c0,41.5232 2.0992,43.5712 44.5952,43.5712l222.6176,0c197.4784,-84.0704 336.0256,-279.9616 336.0256,-508.16z"/>
   <path id="svg_3" data-spm-anchor-id="a313x.7781069.0.i3" p-id="3643" fill="#8a8a8a" d="m150.1696,394.1888c-42.0352,0.1536 -62.72,20.5824 -62.9248,63.1808c-0.3072,53.6576 -0.1024,107.3152 -0.1024,160.9728c0,39.3728 -0.0512,78.7456 -0.0512,118.1184c30.2592,5.12 61.3376,7.9872 93.0304,7.9872c11.8272,0 23.5008,-0.512 35.1232,-1.2288c0,-32.4608 -0.0512,-64.9216 -0.0512,-97.3824l0,-187.8016c0.0512,-64.0512 0,-64.1024 -65.024,-63.8464zm549.3248,-14.5408c-9.9328,-0.1024 -19.8144,-0.256 -29.7472,-0.3584c-29.952,-0.3072 -35.1232,-6.3488 -35.2256,-35.7376c-0.1536,-53.6576 0.256,-107.3152 -0.2048,-160.9728c-0.3584,-42.0864 -22.5792,-72.1408 -57.7024,-79.6672c-45.568,-9.7792 -78.3872,4.9664 -96.256,46.7968c-11.008,25.8048 -18.2784,53.3504 -26.1632,80.384c-22.6816,77.8752 -68.8128,134.6048 -146.8416,161.4336c-20.48,7.0656 -28.0576,18.0736 -27.8016,39.1168c0.768,72.2944 0.3072,144.5376 0.3072,216.832l0,87.8592c194.7648,-35.584 353.8944,-173.2608 419.6352,-355.6864z"/>
   <path id="svg_4" class="selected" data-spm-anchor-id="a313x.7781069.0.i4" p-id="3644" fill="#bfbfbf" d="m582.7584,104.4992c-1.9968,-0.6144 -4.0448,-1.1264 -6.144,-1.5872c-45.568,-9.7792 -78.3872,4.9664 -96.256,46.7968c-11.008,25.8048 -18.2784,53.3504 -26.1632,80.384c-22.6816,77.8752 -68.8128,134.6048 -146.8416,161.4336c-20.48,7.0656 -28.0576,18.0736 -27.8016,39.1168c0.2048,21.4528 0.3072,42.9056 0.3584,64.3584c154.3168,-74.0864 268.8,-217.856 302.848,-390.5024zm-432.5888,289.6896c-42.0352,0.1536 -62.72,20.5824 -62.9248,63.1808c-0.2048,29.952 -0.2048,59.8528 -0.2048,89.7536c44.4416,-3.6352 87.3472,-12.544 128.2048,-26.112l0,-62.976c0,-64.0512 -0.0512,-64.1024 -65.0752,-63.8464z"/>
  </g>
 </g>
</svg>