<?xml version="1.0" standalone="no"?><!DOCTYPE svg PUBLIC "-//W3C//DTD SVG 1.1//EN" "http://www.w3.org/Graphics/SVG/1.1/DTD/svg11.dtd"><svg t="1683129871925" class="icon" viewBox="0 0 1024 1024" version="1.1" xmlns="http://www.w3.org/2000/svg" p-id="8991" xmlns:xlink="http://www.w3.org/1999/xlink" width="128" height="128"><path d="M618 694.6V831c0 9.3-7.4 16.7-16.7 16.7H418.5c-9.3 0-16.7-7.4-16.7-16.7V694.6c0-7-4.2-13-10.7-15.8-115.5-49.2-194.4-168.4-183.2-304.3 12.1-148 132.2-266.7 280.2-277.4 177.2-12.5 325.2 127.6 325.2 302.4 0 125.2-76.1 232.9-184.6 279.2-6.6 3-10.7 9-10.7 15.9z" fill="#FFBA40" p-id="8992"></path><path d="M601.3 869.5H418.5c-21.3 0-38.5-17.2-38.5-38.5V697.9c-127.6-55.7-205-186-193.9-325.2C198.6 214.5 328.1 87 486.7 75.9c91.4-6.5 178.1 24.1 244.9 86.3 65.9 61.2 103.4 148 103.4 238 0 129.4-76.5 246.3-194.8 297.8v133c-0.4 21.4-17.6 38.5-38.9 38.5z m-177.7-43.6h173V694.6c0-15.3 9.3-29.7 23.7-35.7 103.9-44.5 171.2-146.1 171.2-258.8 0-77.9-32.5-153.1-89.5-206-58-53.8-133.1-80.2-212.4-74.7-137.3 9.3-249.1 120.1-260.2 257-9.7 121.5 58.4 235.2 170.2 282.5 14.4 6 23.7 19.9 23.7 35.7v131.3h0.3z" fill="#333333" p-id="8993"></path><path d="M451.9 766.1c-12.1 0-21.8-9.7-21.8-21.8V572.7c0-43.1-35.3-78.4-78.4-78.4-12.1 0-21.8-9.7-21.8-21.8s9.7-21.8 21.8-21.8c67.3 0 122 54.7 122 122v171.6c0 12-9.7 21.8-21.8 21.8z m100.7 0c-12.1 0-21.8-9.7-21.8-21.8V572.7c0-67.3 54.7-122 122-122 12.1 0 21.8 9.7 21.8 21.8s-9.7 21.8-21.8 21.8c-43.1 0-78.4 35.3-78.4 78.4v171.6c0 12-9.8 21.8-21.8 21.8z" fill="#333333" p-id="8994"></path><path d="M652.8 652.9H367c-24.6 0-44.5 19.9-44.5 44.5s19.9 44.5 44.5 44.5h285.7c24.6 0 44.5-19.9 44.5-44.5 0.1-24.6-19.9-44.5-44.4-44.5z" fill="#27C18F" p-id="8995"></path><path d="M652.8 763.3H367c-36.6 0-66.3-29.7-66.3-66.3 0-36.6 29.7-66.3 66.3-66.3h285.7c36.6 0 66.3 29.7 66.3 66.3 0.1 36.6-29.6 66.3-66.2 66.3zM367 674.7c-12.5 0-22.7 10.2-22.7 22.7s10.2 22.7 22.7 22.7h285.7c12.5 0 22.7-10.2 22.7-22.7s-10.2-22.7-22.7-22.7H367z" fill="#333333" p-id="8996"></path><path d="M631.4 741.5h-243c-24.6 0-44.5 19.9-44.5 44.5s19.9 44.5 44.5 44.5h243.1c24.6 0 44.5-19.9 44.5-44.5-0.5-24.6-20.5-44.5-44.6-44.5z" fill="#27C18F" p-id="8997"></path><path d="M631.4 852.4h-243c-36.6 0-66.3-29.7-66.3-66.3s29.7-66.3 66.3-66.3h243.1c36.6 0 66.3 29.7 66.3 66.3-0.5 36.6-30.2 66.3-66.4 66.3z m-243-89.1c-12.5 0-22.7 10.2-22.7 22.7s10.2 22.7 22.7 22.7h243.1c12.5 0 22.7-10.2 22.7-22.7s-10.2-22.7-22.7-22.7H388.4z" fill="#333333" p-id="8998"></path><path d="M579.9 830.6H439.8c-24.6 0-44.5 19.9-44.5 44.5s19.9 44.5 44.5 44.5h140.1c24.6 0 44.5-19.9 44.5-44.5-0.4-24.6-20.3-44.5-44.5-44.5z" fill="#27C18F" p-id="8999"></path><path d="M579.9 941H439.8c-36.6 0-66.3-29.7-66.3-66.3 0-36.6 29.7-66.3 66.3-66.3h140.1c36.6 0 66.3 29.7 66.3 66.3-0.4 36.6-30.1 66.3-66.3 66.3z m-140.1-88.6c-12.5 0-22.7 10.2-22.7 22.7s10.2 22.7 22.7 22.7h140.1c12.5 0 22.7-10.2 22.7-22.7s-10.2-22.7-22.7-22.7H439.8zM566.5 369c0 19 15.4 34.3 34.3 34.3 19 0 34.3-15.4 34.3-34.3 0-19-15.4-34.3-34.3-34.3S566.5 350 566.5 369zM370.3 369c0 19 15.4 34.3 34.3 34.3 19 0 34.3-15.4 34.3-34.3 0-19-15.4-34.3-34.3-34.3-19 0-34.3 15.3-34.3 34.3zM468.6 369c0 19 15.3 34.3 34.3 34.4 19 0 34.3-15.3 34.4-34.3v-0.1c0-19-15.4-34.3-34.3-34.3-19 0-34.4 15.3-34.4 34.3z" fill="#333333" p-id="9000"></path></svg>